<?xml version="1.0" standalone="no"?>
<!DOCTYPE svg PUBLIC "-//W3C//DTD SVG 20010904//EN"
 "http://www.w3.org/TR/2001/REC-SVG-20010904/DTD/svg10.dtd">
<svg version="1.0" xmlns="http://www.w3.org/2000/svg"
 width="500.000000pt" height="500.000000pt" viewBox="0 0 500.000000 500.000000"
 preserveAspectRatio="xMidYMid meet">

<g transform="translate(0.000000,500.000000) scale(0.100000,-0.100000)"
fill="#FF6700" stroke="none">
<path d="M2346 4244 c-9 -24 -7 -207 3 -222 4 -8 27 -16 50 -19 41 -6 41 -6
41 -49 0 -42 -1 -44 -31 -44 -97 0 -274 -64 -386 -140 -59 -40 -75 -47 -80
-35 -3 9 2 24 11 34 9 10 16 22 16 27 0 16 -104 114 -121 114 -19 0 -139 -121
-139 -141 0 -17 100 -119 117 -119 6 0 16 7 23 15 14 17 40 20 40 5 0 -5 -23
-38 -51 -72 -65 -81 -133 -221 -159 -328 -24 -104 -27 -268 -5 -375 63 -302
301 -551 615 -641 100 -28 328 -27 433 4 206 59 380 187 490 358 268 420 125
966 -315 1204 -77 41 -241 90 -304 90 -34 0 -34 1 -34 45 0 43 1 45 28 45 57
0 63 13 60 140 l-3 115 -146 3 c-127 2 -147 0 -153 -14z m354 -474 c124 -35
204 -84 306 -185 153 -152 215 -295 217 -500 1 -139 -14 -207 -68 -320 -136
-283 -438 -447 -746 -406 -261 34 -486 209 -582 451 -71 181 -62 400 23 575
104 214 309 369 539 405 82 13 225 4 311 -20z"/>
<path d="M2503 3715 c0 -22 2 -30 4 -17 2 12 2 30 0 40 -3 9 -5 -1 -4 -23z"/>
<path d="M2160 3656 c0 -14 39 -67 40 -53 0 11 -29 67 -35 67 -3 0 -5 -6 -5
-14z"/>
<path d="M2817 3630 c-10 -16 -15 -30 -10 -30 4 0 16 14 25 30 9 17 14 30 10
30 -4 0 -16 -13 -25 -30z"/>
<path d="M2492 3624 c-6 -11 -14 -119 -18 -242 -7 -215 -8 -222 -30 -241 -50
-44 -38 -122 23 -148 93 -38 167 74 96 145 l-28 27 -3 215 c-3 147 -8 223 -17
239 -12 24 -13 24 -23 5z m38 -549 c0 -31 -26 -43 -47 -22 -21 21 -9 47 22 47
20 0 25 -5 25 -25z"/>
<path d="M1929 3400 c13 -11 30 -20 39 -20 19 0 15 3 -28 24 l-35 17 24 -21z"/>
<path d="M3058 3402 c-38 -23 -36 -35 2 -14 16 9 30 20 30 25 0 9 -1 9 -32
-11z"/>
<path d="M1838 3073 c12 -2 30 -2 40 0 9 3 -1 5 -23 4 -22 0 -30 -2 -17 -4z"/>
<path d="M3128 3073 c12 -2 30 -2 40 0 9 3 -1 5 -23 4 -22 0 -30 -2 -17 -4z"/>
<path d="M1929 2750 c-31 -25 -18 -25 23 0 20 12 26 20 17 20 -9 0 -27 -9 -40
-20z"/>
<path d="M3040 2760 c33 -23 50 -30 50 -22 0 5 -11 14 -25 20 -32 15 -45 15
-25 2z"/>
<path d="M2175 2518 l-16 -33 21 24 c11 13 20 27 20 32 0 18 -10 8 -25 -23z"/>
<path d="M2817 2520 c9 -16 21 -30 25 -30 4 0 -1 13 -10 30 -9 16 -21 30 -25
30 -5 0 0 -13 10 -30z"/>
<path d="M2503 2430 c0 -25 2 -35 4 -22 2 12 2 32 0 45 -2 12 -4 2 -4 -23z"/>
<path d="M1331 1937 c-16 -16 -14 -34 5 -41 21 -8 34 1 34 24 0 22 -23 33 -39
17z"/>
<path d="M932 1893 c-5 -16 -13 -37 -18 -48 -5 -14 5 -9 34 18 32 28 51 37 77
37 32 0 35 -3 35 -27 0 -33 -52 -230 -69 -261 -6 -12 -21 -22 -31 -22 -11 0
-20 -4 -20 -10 0 -6 32 -10 75 -10 43 0 75 4 75 10 0 6 -9 10 -20 10 -11 0
-23 6 -25 13 -7 16 60 264 76 283 8 10 25 14 48 12 31 -3 37 -8 46 -35 13 -46
22 -41 27 12 l3 45 -151 0 -152 0 -10 -27z"/>
<path d="M2180 1910 c0 -5 9 -10 20 -10 28 0 26 -27 -11 -162 -30 -111 -49
-148 -76 -148 -7 0 -13 -4 -13 -10 0 -6 27 -10 60 -10 57 0 78 11 45 24 -8 3
-15 17 -15 32 0 39 53 235 61 227 3 -5 12 -60 19 -123 13 -126 19 -160 29
-160 3 0 46 66 96 145 49 80 91 141 93 137 4 -14 -58 -234 -70 -249 -6 -7 -17
-13 -24 -13 -8 0 -14 -4 -14 -10 0 -6 30 -10 70 -10 40 0 70 4 70 10 0 6 -9
10 -20 10 -28 0 -26 32 10 170 25 91 36 120 58 138 l27 23 -49 -3 -50 -3 -84
-133 c-47 -73 -86 -131 -88 -130 -2 3 -34 245 -34 262 0 3 -25 6 -55 6 -30 0
-55 -4 -55 -10z"/>
<path d="M3985 1787 l-35 -35 0 29 c0 22 -5 29 -19 29 -21 0 -71 -36 -71 -52
0 -6 8 -4 18 5 10 10 22 17 25 17 14 0 6 -48 -18 -120 -30 -88 -30 -90 -7 -90
14 0 23 15 37 61 10 34 31 81 47 105 27 43 30 45 64 38 33 -6 36 -5 32 17 -5
36 -34 35 -73 -4z"/>
<path d="M1267 1782 c-15 -15 -27 -32 -27 -37 0 -5 10 2 23 15 21 23 22 24 25
5 1 -11 -9 -54 -22 -95 -26 -82 -25 -100 8 -100 22 0 84 55 74 65 -2 3 -13 -4
-23 -15 -42 -46 -45 -16 -10 82 14 38 25 78 25 89 0 29 -41 24 -73 -9z"/>
<path d="M1425 1793 c-17 -16 -38 -63 -32 -69 1 -2 11 12 22 31 17 32 45 48
45 25 0 -5 -14 -53 -31 -106 -17 -53 -28 -98 -25 -101 14 -14 35 11 56 68 12
35 34 80 47 101 24 35 58 57 70 44 5 -5 -32 -140 -55 -203 -2 -8 4 -13 14 -13
28 1 83 146 75 197 -5 32 -10 38 -34 41 -21 3 -35 -5 -57 -28 l-30 -32 0 31
c0 26 -4 31 -24 31 -14 0 -32 -7 -41 -17z"/>
<path d="M1647 1784 c-36 -36 -35 -55 1 -21 27 26 52 35 52 19 0 -5 -11 -42
-25 -82 -31 -90 -33 -130 -6 -130 23 0 67 34 82 63 9 18 6 16 -20 -7 -17 -16
-34 -27 -37 -23 -4 4 3 40 15 82 12 41 21 85 19 97 -5 35 -48 36 -81 2z"/>
<path d="M1845 1768 c-61 -61 -79 -140 -43 -185 19 -24 75 -15 110 17 18 16
28 30 22 30 -6 0 -19 -9 -29 -20 -34 -37 -85 -17 -85 34 0 9 27 28 65 46 67
32 88 56 83 93 -2 18 -11 23 -41 25 -34 3 -44 -2 -82 -40z m88 20 c12 -33 -49
-98 -91 -98 -18 0 21 74 50 94 27 19 34 20 41 4z"/>
<path d="M2669 1793 c-34 -21 -77 -87 -85 -131 -16 -82 40 -121 96 -67 l28 27
4 -23 c2 -14 11 -25 21 -27 19 -4 77 43 77 62 0 5 -10 0 -23 -12 -13 -12 -26
-22 -30 -22 -14 0 -6 50 18 122 14 40 25 76 25 81 0 12 -28 8 -34 -5 -5 -10
-7 -10 -12 0 -8 17 -54 15 -85 -5z m71 -40 c0 -41 -44 -129 -71 -146 -9 -6
-24 -7 -33 -4 -50 19 25 187 84 187 16 0 20 -7 20 -37z"/>
<path d="M2870 1778 c-11 -18 -20 -40 -20 -48 1 -8 10 2 21 23 20 38 55 53 45
20 -3 -10 -17 -58 -31 -106 -15 -49 -24 -91 -21 -94 11 -12 34 7 40 33 21 81
88 184 121 184 21 0 19 -25 -10 -110 -26 -75 -25 -110 1 -110 21 0 63 29 76
53 10 19 9 19 -18 -2 -25 -20 -29 -21 -32 -7 -2 9 6 45 18 81 29 86 25 109
-18 113 -27 3 -39 -3 -65 -30 l-32 -34 0 30 c0 26 -4 31 -27 34 -22 3 -32 -3
-48 -30z"/>
<path d="M3196 1776 c-43 -40 -66 -91 -66 -144 0 -66 44 -82 99 -36 l31 26 0
-26 c0 -18 5 -26 18 -26 23 0 59 26 73 53 11 21 11 21 -14 -2 -50 -46 -52 -7
-7 123 22 64 20 77 -10 58 -12 -7 -21 -8 -25 -2 -14 22 -64 10 -99 -24z m91
-31 c-7 -63 -55 -140 -87 -140 -16 0 -26 7 -28 18 -12 61 48 167 94 167 26 0
26 -2 21 -45z"/>
<path d="M3445 1786 c-34 -34 -42 -73 -21 -109 9 -16 15 -30 14 -31 -26 -11
-43 -27 -43 -42 0 -15 16 -24 73 -42 78 -26 92 -47 50 -76 -54 -38 -153 -3
-127 45 14 26 6 34 -20 19 -30 -15 -27 -56 5 -77 32 -20 108 -23 151 -5 32 14
57 59 47 86 -6 15 -34 28 -94 43 -20 5 -35 15 -35 23 0 9 14 17 35 20 71 12
100 42 100 103 0 42 7 49 31 34 21 -13 46 3 35 22 -9 14 -53 14 -61 1 -4 -7
-12 -7 -25 0 -35 18 -89 12 -115 -14z m93 -28 c2 -20 -4 -51 -13 -68 -13 -25
-22 -31 -43 -28 -43 5 -44 71 -1 116 30 33 53 25 57 -20z"/>
<path d="M3706 1776 c-89 -83 -88 -206 1 -206 33 0 83 33 83 55 0 9 -9 5 -25
-10 -41 -42 -85 -28 -85 26 0 22 6 29 29 34 40 8 108 59 116 85 18 58 -64 69
-119 16z m82 -3 c2 -13 -10 -31 -33 -52 -32 -27 -65 -41 -65 -26 0 16 35 72
54 87 26 21 40 18 44 -9z"/>
</g>
</svg>
